<?xml version="1.0" encoding="utf-8"?>
<!-- Generator: Adobe Illustrator 24.0.1, SVG Export Plug-In . SVG Version: 6.00 Build 0)  -->
<svg version="1.1" id="Calque_1" xmlns="http://www.w3.org/2000/svg" xmlns:xlink="http://www.w3.org/1999/xlink" x="0px" y="0px"
	 viewBox="0 0 189 19" style="enable-background:new 0 0 189 19;" xml:space="preserve">
<style type="text/css">
	.st0{fill:#222222;}
	.st1{fill:#593196;}
</style>
<path class="st0" d="M5,5.6H0.1V1.2h15.5v4.4h-4.9V18H5V5.6z M36.8,11.4c0,0.1,0,0.5-0.1,1.3h-9.1c0.2,0.5,0.5,0.9,1,1.2
	c0.4,0.3,1,0.4,1.7,0.4c0.6,0,1.1-0.1,1.4-0.2c0.4-0.1,0.8-0.4,1.3-0.7l2.8,2.9c-1.3,1.4-3.2,2.1-5.7,2.1c-1.6,0-3-0.3-4.2-0.9
	c-1.2-0.6-2.1-1.4-2.8-2.4s-1-2.2-1-3.5c0-1.3,0.3-2.5,1-3.5c0.7-1,1.5-1.8,2.7-2.4c1.1-0.6,2.4-0.9,3.8-0.9c1.3,0,2.5,0.3,3.6,0.8
	c1.1,0.5,2,1.3,2.6,2.3C36.4,8.8,36.8,10,36.8,11.4z M29.6,8.3c-0.6,0-1,0.2-1.4,0.5c-0.4,0.3-0.6,0.7-0.7,1.3h4.2
	c-0.1-0.5-0.4-1-0.7-1.3C30.6,8.5,30.1,8.3,29.6,8.3z M52.7,18.2c-1.5,0-2.8-0.3-4-0.9C47.6,16.8,46.6,16,46,15c-0.7-1-1-2.2-1-3.5
	s0.3-2.5,1-3.5c0.7-1,1.6-1.8,2.8-2.4c1.2-0.6,2.5-0.9,4-0.9c1.6,0,3,0.3,4.1,1c1.1,0.7,1.9,1.6,2.4,2.9L55,10.6
	c-0.5-1.2-1.3-1.7-2.3-1.7c-0.6,0-1.2,0.2-1.6,0.7c-0.4,0.4-0.6,1.1-0.6,1.9c0,0.8,0.2,1.5,0.6,1.9c0.4,0.4,1,0.7,1.6,0.7
	c1,0,1.8-0.6,2.3-1.7l4.2,2.1c-0.4,1.2-1.2,2.2-2.4,2.9C55.7,17.9,54.3,18.2,52.7,18.2z M76.8,4.6c1.6,0,2.9,0.5,3.9,1.5
	c1,1,1.5,2.4,1.5,4.4V18h-5.4v-6.6c0-1.5-0.5-2.3-1.6-2.3c-0.6,0-1.1,0.2-1.5,0.6c-0.4,0.4-0.6,1.1-0.6,2V18h-5.4V0.2h5.4v5.7
	C74.1,5.1,75.3,4.6,76.8,4.6z"/>
<path class="st1" d="M98.1,18.4c-1.4,0-2.8-0.2-4.1-0.5c-1.3-0.3-2.4-0.7-3.2-1.3l1.8-4.1c0.8,0.5,1.7,0.8,2.7,1.1
	c1,0.3,1.9,0.4,2.9,0.4c0.8,0,1.3-0.1,1.7-0.2c0.3-0.2,0.5-0.4,0.5-0.7c0-0.4-0.2-0.6-0.7-0.8c-0.4-0.2-1.2-0.4-2.2-0.6
	c-1.3-0.3-2.4-0.6-3.2-0.9c-0.9-0.3-1.6-0.8-2.3-1.5c-0.6-0.7-1-1.7-1-2.9c0-1.1,0.3-2,0.9-2.9s1.5-1.5,2.6-2
	c1.2-0.5,2.6-0.7,4.3-0.7c1.2,0,2.3,0.1,3.4,0.4c1.1,0.2,2.1,0.6,3,1.1l-1.7,4.1c-1.6-0.8-3.2-1.2-4.7-1.2c-1.5,0-2.2,0.4-2.2,1.1
	c0,0.3,0.2,0.6,0.6,0.8c0.4,0.2,1.1,0.3,2.1,0.5c1.3,0.2,2.4,0.5,3.2,0.8c0.9,0.3,1.6,0.8,2.3,1.5c0.7,0.7,1,1.7,1,2.9
	c0,1.1-0.3,2-0.9,2.9c-0.6,0.8-1.5,1.5-2.7,2C101.2,18.1,99.8,18.4,98.1,18.4z M124.3,17.5c-0.8,0.5-1.9,0.7-3.3,0.7
	c-1.8,0-3.3-0.4-4.2-1.3c-1-0.9-1.5-2.2-1.5-4V9.6h-1.8v-4h1.8V1.9h5.4v3.7h2.7v4h-2.7v3.3c0,0.4,0.1,0.7,0.3,0.9s0.5,0.3,0.8,0.3
	c0.5,0,0.9-0.1,1.2-0.4L124.3,17.5z M139.5,18.2c-1.5,0-2.8-0.3-3.9-0.9c-1.2-0.6-2.1-1.4-2.7-2.4c-0.7-1-1-2.2-1-3.5s0.3-2.5,1-3.5
	c0.7-1,1.6-1.8,2.7-2.4c1.2-0.6,2.5-0.9,3.9-0.9c1.5,0,2.8,0.3,3.9,0.9c1.2,0.6,2.1,1.4,2.7,2.4c0.7,1,1,2.2,1,3.5s-0.3,2.5-1,3.5
	c-0.6,1-1.5,1.8-2.7,2.4C142.3,18,141,18.2,139.5,18.2z M139.5,14c0.6,0,1.1-0.2,1.5-0.7c0.4-0.5,0.6-1.1,0.6-1.9s-0.2-1.4-0.6-1.9
	c-0.4-0.4-0.9-0.7-1.5-0.7c-0.6,0-1.1,0.2-1.5,0.7c-0.4,0.4-0.6,1.1-0.6,1.9s0.2,1.5,0.6,1.9C138.3,13.8,138.9,14,139.5,14z
	 M161.2,6.3c1-1.1,2.4-1.7,4.2-1.7v4.8c-0.4-0.1-0.8-0.1-1.2-0.1c-1.9,0-2.8,0.9-2.8,2.8V18H156V4.9h5.2V6.3z M188,11.4
	c0,0.1,0,0.5-0.1,1.3h-9.1c0.2,0.5,0.5,0.9,1,1.2c0.4,0.3,1,0.4,1.7,0.4c0.6,0,1.1-0.1,1.4-0.2c0.4-0.1,0.8-0.4,1.3-0.7l2.8,2.9
	c-1.3,1.4-3.2,2.1-5.7,2.1c-1.6,0-3-0.3-4.2-0.9c-1.2-0.6-2.1-1.4-2.8-2.4c-0.7-1-1-2.2-1-3.5c0-1.3,0.3-2.5,1-3.5
	c0.7-1,1.5-1.8,2.7-2.4c1.1-0.6,2.4-0.9,3.8-0.9c1.3,0,2.5,0.3,3.6,0.8c1.1,0.5,2,1.3,2.6,2.3C187.7,8.8,188,10,188,11.4z
	 M180.8,8.3c-0.6,0-1,0.2-1.4,0.5c-0.4,0.3-0.6,0.7-0.7,1.3h4.2c-0.1-0.5-0.4-1-0.7-1.3C181.9,8.5,181.4,8.3,180.8,8.3z"/>
</svg>
